<?xml version="1.0" encoding="UTF-8" standalone="no"?>
<!-- Created with Inkscape (http://www.inkscape.org/) -->

<svg
   xmlns:dc="http://purl.org/dc/elements/1.1/"
   xmlns:cc="http://creativecommons.org/ns#"
   xmlns:rdf="http://www.w3.org/1999/02/22-rdf-syntax-ns#"
   xmlns:svg="http://www.w3.org/2000/svg"
   xmlns="http://www.w3.org/2000/svg"
   xmlns:xlink="http://www.w3.org/1999/xlink"
   xmlns:sodipodi="http://sodipodi.sourceforge.net/DTD/sodipodi-0.dtd"
   xmlns:inkscape="http://www.inkscape.org/namespaces/inkscape"
   width="210mm"
   height="297mm"
   viewBox="0 0 210 297"
   version="1.1"
   id="svg8"
   inkscape:version="0.92.2 5c3e80d, 2017-08-06"
   sodipodi:docname="icon.svg">
  <defs
     id="defs2">
    <symbol
       id="emoji-1f170">
      <title
         id="title5006">1f170</title>
      <path
         style="fill:#ed4c5c;stroke-width:0.26458332"
         inkscape:connector-curvature="0"
         d="m 16.404167,13.758333 c 0,1.461294 -1.18454,2.645834 -2.645834,2.645834 H 3.175 c -1.4612938,0 -2.64583333,-1.18454 -2.64583333,-2.645834 V 3.175 c 0,-1.4612938 1.18453953,-2.64583333 2.64583333,-2.64583333 h 10.583333 c 1.461294,0 2.645834,1.18453953 2.645834,2.64583333 z"
         id="path5008" />
      <path
         style="fill:#ffffff;stroke-width:0.26458332"
         inkscape:connector-curvature="0"
         d="m 11.041856,12.170833 h 1.393561 L 9.2583,3.7041667 H 7.6755625 L 4.4979167,12.170833 H 5.8914771 L 7.0037854,9.2077646 H 9.9303417 Z M 7.4800354,7.9375 8.4666667,5.3080708 9.4535625,7.9375 Z"
         id="path5010" />
    </symbol>
    <symbol
       id="emoji-1f606">
      <title
         id="title48626">1f606</title>
      <circle
         style="fill:#ffdd67;stroke-width:0.26458332"
         cx="8.4666662"
         cy="8.4666662"
         r="7.9375"
         id="circle48628" />
      <path
         style="fill:#664e27;stroke-width:0.26458332"
         inkscape:connector-curvature="0"
         d="m 13.49375,8.8159167 c 0,2.1298953 -1.669785,4.6156563 -5.0270833,4.6156563 -3.3588855,0 -5.0270834,-2.485761 -5.0270834,-4.6156563 0,0 1.6681979,0 5.0270834,0 3.3572983,0 5.0270833,0 5.0270833,0"
         id="path48630" />
      <path
         style="fill:#4c3526;stroke-width:0.26458332"
         inkscape:connector-curvature="0"
         d="m 9.0222917,10.267156 c -0.174625,-0.0042 -0.4434417,0.151871 -0.3447521,0.567002 0.049213,0.209286 0.3585104,0.461963 0.3585104,0.799042 0,0.686329 -1.1390313,0.686329 -1.1390313,0 0,-0.337873 0.3095625,-0.59055 0.3590396,-0.799042 0.09816,-0.414866 -0.1706562,-0.570971 -0.3452812,-0.567002 -0.4738688,0.01191 -1.2512146,0.502709 -1.2512146,1.3335 0,0.933186 0.8093604,1.690423 1.806575,1.690423 0.9972146,0 1.8065745,-0.756973 1.8065745,-1.690423 5.3e-4,-0.830527 -0.7770808,-1.321329 -1.2504203,-1.3335"
         id="path48632" />
      <path
         style="fill:#ff717f;stroke-width:0.26458332"
         inkscape:connector-curvature="0"
         d="m 10.874375,12.969875 c -0.636588,-0.372533 -1.4366875,-0.607748 -2.4087667,-0.607748 -0.9720791,0 -1.7719146,0.235215 -2.4090312,0.607748 0.6371166,0.373062 1.4372166,0.608806 2.4090312,0.608806 0.9718146,0 1.7719147,-0.235743 2.4087667,-0.608806"
         id="path48634" />
      <path
         style="fill:#ffffff;stroke-width:0.26458332"
         inkscape:connector-curvature="0"
         d="M 3.4395833,8.73125 H 13.49375 v 1.322917 H 3.4395833 Z"
         id="path48636" />
      <g
         style="fill:#664e27"
         id="g48644">
        <path
           style="stroke-width:0.26458332"
           inkscape:connector-curvature="0"
           d="M 8.4666667,13.695892 C 5.0292,13.695892 3.175,11.181292 3.175,8.8156521 V 8.5510687 h 10.583333 v 0.2645834 c 0,2.3656399 -1.854729,4.8802399 -5.2916663,4.8802399 M 3.7123687,9.0799708 c 0.13335,2.0277662 1.7901709,4.0867542 4.754298,4.0867542 2.9641273,0 4.6204183,-2.058723 4.7537683,-4.0864896 H 3.7123687 Z"
           id="path48638" />
        <path
           style="stroke-width:0.26458332"
           inkscape:connector-curvature="0"
           d="M 12.7635,5.857875 C 12.380648,5.7348437 11.96975,5.6840437 11.556735,5.7179104 c -0.08573,0.00688 -0.17092,0.020373 -0.25691,0.03519 0.02937,-0.015875 0.05794,-0.033867 0.08731,-0.049212 0.31459,-0.1616604 0.64135,-0.3034771 0.989013,-0.4320646 C 12.723812,5.1397958 13.09026,5.0270833 13.487665,4.8733604 13.099521,4.6966187 12.676981,4.6370875 12.253648,4.6598417 11.830315,4.6841833 11.406187,4.7992771 11.022277,4.9990375 10.638367,5.1977396 10.29679,5.48005 10.035646,5.8200396 9.7797938,6.1600292 9.5855896,6.5569042 9.5601896,6.9873812 9.9483333,6.8561479 10.285148,6.7415833 10.623815,6.6648542 c 0.335491,-0.07911 0.664104,-0.1267355 1.000918,-0.1566334 0.336286,-0.02831 0.679979,-0.037306 1.037696,-0.037306 0.358511,-0.00106 0.724958,0.00661 1.132152,-0.00106 C 13.50936,6.1719354 13.145558,5.9843458 12.764558,5.857875"
           id="path48640" />
        <path
           style="stroke-width:0.26458332"
           inkscape:connector-curvature="0"
           d="M 5.9107917,4.9987729 C 5.5274104,4.7990125 5.1024896,4.6839187 4.67995,4.6595771 4.2566167,4.6368229 3.8335479,4.6963542 3.4459333,4.8730958 3.8428083,5.0268187 4.2097854,5.140325 4.5569187,5.2715583 4.9051104,5.3998812 5.2313417,5.5416979 5.5459312,5.7036229 5.5753,5.7189687 5.603875,5.7369604 5.6332437,5.7528354 5.5480479,5.7377542 5.4623229,5.724525 5.3763333,5.7176458 4.9643771,5.6837792 4.5526854,5.7345792 4.1695687,5.8576104 3.7888333,5.9843458 3.4250312,6.1719354 3.1395458,6.4698562 c 0.4066646,0.00767 0.7731125,0 1.1321521,0.00106 0.3571875,0 0.7006167,0.00873 1.0376958,0.037306 0.3362855,0.029633 0.6656917,0.077523 1.0003896,0.1566334 0.3373438,0.076729 0.6744229,0.1912937 1.063625,0.322527 C 7.3480083,6.5569042 7.1538042,6.1600292 6.8974229,5.8200396 6.6368083,5.4797854 6.2952312,5.197475 5.9113208,4.9987729"
           id="path48642" />
      </g>
    </symbol>
    <symbol
       id="emoji-1f602">
      <title
         id="title48546">1f602</title>
      <circle
         style="fill:#ffdd67;stroke-width:0.26458332"
         cx="8.482542"
         cy="8.4666662"
         r="7.9375"
         id="circle48548" />
      <path
         style="fill:#664e27;stroke-width:0.26458332"
         inkscape:connector-curvature="0"
         d="m 13.509625,9.3450833 c 0,2.1298957 -1.669785,4.6159207 -5.0270833,4.6159207 -3.3583563,0 -5.0270834,-2.48576 -5.0270834,-4.6159207 0,0 1.6687271,0 5.0270834,0 3.3575623,0 5.0270833,0 5.0270833,0"
         id="path48550" />
      <path
         style="fill:#4c3526;stroke-width:0.26458332"
         inkscape:connector-curvature="0"
         d="m 9.0381667,10.796323 c -0.1751542,-0.0042 -0.4434417,0.152135 -0.3452813,0.567002 0.049742,0.209285 0.3585104,0.462227 0.3585104,0.799042 0,0.686593 -1.1385021,0.686593 -1.1385021,0 0,-0.337609 0.3090334,-0.59055 0.3585105,-0.799042 0.09869,-0.414602 -0.1706563,-0.570971 -0.3447521,-0.567002 -0.4738688,0.01191 -1.2512146,0.502708 -1.2512146,1.3335 0,0.93345 0.8088312,1.690423 1.806575,1.690423 0.9974792,0 1.8060455,-0.756709 1.8060455,-1.690423 7.94e-4,-0.830527 -0.7770809,-1.321329 -1.2498913,-1.3335"
         id="path48552" />
      <path
         style="fill:#ff717f;stroke-width:0.26458332"
         inkscape:connector-curvature="0"
         d="m 10.892896,13.499042 c -0.637117,-0.372534 -1.4372168,-0.608013 -2.4090314,-0.608013 -0.9718146,0 -1.7719146,0.235479 -2.4087667,0.608013 0.6365875,0.373062 1.4366875,0.608541 2.4087667,0.608541 0.9720791,0 1.7719144,-0.235479 2.4090314,-0.608541"
         id="path48554" />
      <path
         style="fill:#ffffff;stroke-width:0.26458332"
         inkscape:connector-curvature="0"
         d="M 3.4554583,9.2604167 H 13.509625 V 10.583333 H 3.4554583 Z"
         id="path48556" />
      <path
         style="fill:#664e27;stroke-width:0.26458332"
         inkscape:connector-curvature="0"
         d="m 8.4825417,14.225323 c -3.4369375,0 -5.2916667,-2.5146 -5.2916667,-4.8805043 V 9.0802354 h 10.583333 v 0.2645833 c 0,2.3659043 -1.854729,4.8805043 -5.2916663,4.8805043 M 3.7287729,9.6091375 c 0.13335,2.0280315 1.7896417,4.0867545 4.7537688,4.0867545 2.9641273,0 4.6209483,-2.058723 4.7537683,-4.0867545 H 3.7287729"
         id="path48558" />
      <g
         style="fill:#65b1ef"
         id="g48564">
        <path
           style="stroke-width:0.26458332"
           inkscape:connector-curvature="0"
           d="M 15.710958,9.4916625 C 17.644269,11.523398 15.017485,14.285912 13.083646,12.253119 11.671829,10.768542 11.6078,7.9401458 11.6078,7.9401458 c 0,0 2.691871,0.067998 4.103158,1.5515167"
           id="path48560" />
        <path
           style="stroke-width:0.26458332"
           inkscape:connector-curvature="0"
           d="m 3.8158208,12.252854 c -1.9327812,2.032 -4.5603583,-0.729456 -2.6267833,-2.7614561 1.4118167,-1.4837833 4.1031583,-1.5515167 4.1031583,-1.5515167 0,0 -0.064294,2.8291898 -1.476375,4.3129728"
           id="path48562" />
      </g>
      <g
         style="fill:#664e27"
         id="g48570">
        <path
           style="stroke-width:0.26458332"
           inkscape:connector-curvature="0"
           d="m 7.3162583,7.20725 c -0.8636,-1.6396229 -3.3477729,-1.6396229 -4.2113729,0 -0.051594,0.1000125 0.084667,0.2436812 0.2513542,0.3577167 1.0940521,-0.8651875 2.6138187,-0.8654521 3.7068125,0 C 7.2302687,7.4509312 7.3667937,7.3072625 7.3152,7.20725"
           id="path48566" />
        <path
           style="stroke-width:0.26458332"
           inkscape:connector-curvature="0"
           d="M 13.861521,7.20725 C 12.997921,5.5676271 10.514012,5.5676271 9.6504125,7.2069854 9.5988188,7.3072625 9.7350792,7.4509312 9.9017667,7.5649667 10.996083,6.6995146 12.51585,6.6995146 13.611225,7.5647021 13.777912,7.4506667 13.914437,7.3072625 13.862844,7.20725"
           id="path48568" />
      </g>
    </symbol>
    <symbol
       id="emoji-1f605">
      <title
         id="title48607">1f605</title>
      <circle
         style="fill:#ffdd67;stroke-width:0.26458332"
         cx="8.4666662"
         cy="8.4666662"
         r="7.9375"
         id="circle48609" />
      <path
         style="fill:#664e27;stroke-width:0.26458332"
         inkscape:connector-curvature="0"
         d="m 12.7,9.9216104 c 0,1.7092086 -1.405996,3.7039016 -4.2333333,3.7039016 -2.8281313,0 -4.2333334,-1.994693 -4.2333334,-3.7039016 0,0 1.4052021,0 4.2333334,0 2.8273373,0 4.2333333,0 4.2333333,0"
         id="path48611" />
      <path
         style="fill:#ffffff;stroke-width:0.26458332"
         inkscape:connector-curvature="0"
         d="M 4.4762208,9.9216104 H 12.4587 V 11.403012 H 4.4762208 Z"
         id="path48613" />
      <path
         style="fill:#664e27;stroke-width:0.26458332"
         inkscape:connector-curvature="0"
         d="m 8.4666667,13.890625 c -2.921,0 -4.4979167,-2.044965 -4.4979167,-3.9684854 V 9.6575562 h 8.995833 v 0.2645834 c 0,1.9237854 -1.576123,3.9684854 -4.4979163,3.9684854 M 4.5098229,10.186723 c 0.1383771,1.584589 1.5150042,3.174735 3.9568438,3.174735 2.4418393,0 3.8189953,-1.590146 3.9573733,-3.174735 H 4.5098229"
         id="path48615" />
      <path
         style="fill:#65b1ef;stroke-width:0.26458332"
         inkscape:connector-curvature="0"
         d="m 16.404167,4.9037875 c 5.29e-4,2.4812625 -3.37185,2.4817917 -3.37185,0 0,-1.8121313 1.686189,-3.5806063 1.686189,-3.5806063 0,0 1.685661,1.7692688 1.685661,3.5806063 z"
         id="path48617" />
      <g
         style="fill:#664e27"
         id="g48623">
        <path
           style="stroke-width:0.26458332"
           inkscape:connector-curvature="0"
           d="m 7.2998542,6.7860333 c -0.8636,-1.6396229 -3.347773,-1.6396229 -4.211373,0 -0.051594,0.1000125 0.084667,0.2436813 0.2513542,0.3579813 C 4.4338875,6.2785625 5.9539187,6.2785625 7.0466479,7.14375 7.2136,7.0297146 7.3495958,6.8860458 7.2985312,6.7860333"
           id="path48619" />
        <path
           style="stroke-width:0.26458332"
           inkscape:connector-curvature="0"
           d="M 13.845646,6.7860333 C 12.982046,5.1464104 10.497873,5.1464104 9.6342729,6.7857687 9.5826792,6.8860458 9.7189396,7.0297146 9.8858917,7.14375 10.979944,6.2782979 12.49971,6.2782979 13.592704,7.1434854 13.759656,7.02945 13.895917,6.8860458 13.844587,6.7860333"
           id="path48621" />
      </g>
    </symbol>
  </defs>
  <sodipodi:namedview
     id="base"
     pagecolor="#ffffff"
     bordercolor="#666666"
     borderopacity="1.0"
     inkscape:pageopacity="0.0"
     inkscape:pageshadow="2"
     inkscape:zoom="3.959798"
     inkscape:cx="437.78085"
     inkscape:cy="954.78534"
     inkscape:document-units="mm"
     inkscape:current-layer="layer1"
     showgrid="true"
     inkscape:window-width="1680"
     inkscape:window-height="1005"
     inkscape:window-x="0"
     inkscape:window-y="1"
     inkscape:window-maximized="1">
    <inkscape:grid
       type="xygrid"
       id="grid815" />
  </sodipodi:namedview>
  <metadata
     id="metadata5">
    <rdf:RDF>
      <cc:Work
         rdf:about="">
        <dc:format>image/svg+xml</dc:format>
        <dc:type
           rdf:resource="http://purl.org/dc/dcmitype/StillImage" />
        <dc:title></dc:title>
      </cc:Work>
    </rdf:RDF>
  </metadata>
  <g
     inkscape:label="Layer 1"
     inkscape:groupmode="layer"
     id="layer1">
    <text
       xml:space="preserve"
       style="font-style:normal;font-variant:normal;font-weight:normal;font-stretch:normal;font-size:10.58333302px;line-height:1.25;font-family:'Brush Script MT';-inkscape-font-specification:'Brush Script MT';letter-spacing:0px;word-spacing:0px;fill:#000000;fill-opacity:1;stroke:none;stroke-width:0.26458332"
       x="85.422615"
       y="41.015621"
       id="text819"><tspan
         sodipodi:role="line"
         id="tspan817"
         x="85.422615"
         y="41.015621"
         style="font-style:normal;font-variant:normal;font-weight:bold;font-stretch:normal;font-family:Copperplate;-inkscape-font-specification:'Copperplate Bold';stroke-width:0.26458332">“</tspan></text>
    <text
       id="text827"
       y="70.011002"
       x="75.038651"
       style="font-style:normal;font-variant:normal;font-weight:normal;font-stretch:normal;font-size:20.75257874px;line-height:1.25;font-family:'Brush Script MT';-inkscape-font-specification:'Brush Script MT';letter-spacing:0px;word-spacing:0px;fill:#000000;fill-opacity:1;stroke:none;stroke-width:0.51881444"
       xml:space="preserve"><tspan
         style="font-style:normal;font-variant:normal;font-weight:normal;font-stretch:normal;font-family:'Arial Black';-inkscape-font-specification:'Arial Black, ';stroke-width:0.51881444"
         y="70.011002"
         x="75.038651"
         id="tspan825"
         sodipodi:role="line">“</tspan></text>
    <text
       xml:space="preserve"
       style="font-style:normal;font-variant:normal;font-weight:normal;font-stretch:normal;font-size:10.58333302px;line-height:1.25;font-family:'Brush Script MT';-inkscape-font-specification:'Brush Script MT';letter-spacing:0px;word-spacing:0px;fill:#000000;fill-opacity:1;stroke:none;stroke-width:0.26458332"
       x="76.918152"
       y="51.693451"
       id="text831"><tspan
         sodipodi:role="line"
         id="tspan829"
         x="76.918152"
         y="51.693451"
         style="font-style:normal;font-variant:normal;font-weight:normal;font-stretch:normal;font-family:'Arial Rounded MT Bold';-inkscape-font-specification:'Arial Rounded MT Bold, ';stroke-width:0.26458332">“</tspan></text>
    <text
       id="text835"
       y="42.622025"
       x="69.736603"
       style="font-style:normal;font-variant:normal;font-weight:normal;font-stretch:normal;font-size:10.58333302px;line-height:1.25;font-family:'Brush Script MT';-inkscape-font-specification:'Brush Script MT';letter-spacing:0px;word-spacing:0px;fill:#000000;fill-opacity:1;stroke:none;stroke-width:0.26458332"
       xml:space="preserve"><tspan
         style="font-style:normal;font-variant:normal;font-weight:bold;font-stretch:normal;font-family:Georgia;-inkscape-font-specification:'Georgia Bold';stroke-width:0.26458332"
         y="42.622025"
         x="69.736603"
         id="tspan833"
         sodipodi:role="line">“</tspan></text>
    <path
       style="fill:none;stroke:#000000;stroke-width:0.26458332px;stroke-linecap:butt;stroke-linejoin:miter;stroke-opacity:1"
       d="m 76.729167,53.583333 h 15.875 V 58.875 H 87.3125 V 69.458333 H 82.020833 V 58.875 h -5.291666 z"
       id="path837"
       inkscape:connector-curvature="0"
       sodipodi:nodetypes="ccccccccc" />
    <rect
       style="fill:none;fill-opacity:1;stroke:#000000;stroke-width:0.1;stroke-miterlimit:4;stroke-dasharray:none;stroke-opacity:1"
       id="rect839"
       width="21.166664"
       height="21.166666"
       x="74.083336"
       y="50.9375" />
    <text
       xml:space="preserve"
       style="font-style:normal;font-variant:normal;font-weight:normal;font-stretch:normal;font-size:10.58333302px;line-height:1.25;font-family:Arial;-inkscape-font-specification:Arial;letter-spacing:0px;word-spacing:0px;fill:#000000;fill-opacity:1;stroke:none;stroke-width:0.26458332"
       x="48.947918"
       y="35.0625"
       id="text843"><tspan
         sodipodi:role="line"
         id="tspan841"
         x="48.947918"
         y="35.0625"
         style="stroke-width:0.26458332;-inkscape-font-specification:Verdana;font-family:Verdana;font-weight:normal;font-style:normal;font-stretch:normal;font-variant:normal">😄</tspan></text>
    <use
       id="use99216"
       xlink:href="#emoji-1f606"
       x="0"
       y="0"
       width="100%"
       height="100%"
       transform="translate(105.30417,14.689584)" />
    <use
       id="use99322"
       xlink:href="#emoji-1f605"
       x="0"
       y="0"
       width="100%"
       height="100%"
       transform="rotate(48.808216,33.787903,163.6622)" />
    <rect
       y="29.770836"
       x="123.03125"
       height="21.166666"
       width="21.166664"
       id="rect99350"
       style="fill:none;fill-opacity:1;stroke:none;stroke-width:0.1;stroke-miterlimit:4;stroke-dasharray:none;stroke-opacity:1"
       inkscape:export-filename="/Users/jared/clone/apps/quotes/public/favicon_72.png"
       inkscape:export-xdpi="86.400063"
       inkscape:export-ydpi="86.400063" />
    <text
       xml:space="preserve"
       style="font-style:normal;font-variant:normal;font-weight:normal;font-stretch:normal;font-size:14.50607586px;line-height:1.25;font-family:'Brush Script MT';-inkscape-font-specification:'Brush Script MT';letter-spacing:0px;word-spacing:0px;fill:#000000;fill-opacity:1;stroke:none;stroke-width:0.36265188"
       x="123.52074"
       y="41.626167"
       id="text99354"><tspan
         sodipodi:role="line"
         id="tspan99352"
         x="123.52074"
         y="41.626167"
         style="font-style:normal;font-variant:normal;font-weight:normal;font-stretch:normal;font-family:'Arial Black';-inkscape-font-specification:'Arial Black, ';stroke-width:0.36265188">“</tspan></text>
  </g>
</svg>
